<svg width="24" height="24" viewBox="0 0 24 24" fill="none" xmlns="http://www.w3.org/2000/svg">
<path d="M21 6H3V18H21V6Z" fill="#00247D"/>
<path d="M12 10.7379L3.80267 5H2V6.2621L10.1973 12L2 17.7379V19H3.80267L12 13.2621L20.1973 19H22V17.7379L13.8027 12L22 6.2621V5H20.1973L12 10.7379Z" fill="white"/>
<path d="M14 6H10V18H14V6Z" fill="white"/>
<path d="M21.3341 10.0007H2.66748V14.0007H21.3341V10.0007Z" fill="white"/>
<path d="M21.3341 10.6672H2.66748V13.3339H21.3341V10.6672Z" fill="#CF142B"/>
<path d="M13.3337 6H10.667V18H13.3337V6Z" fill="#CF142B"/>
<path d="M2 5V19H22V5H2ZM21.3333 18.3H2.66667V5.7H21.3333V18.3Z" fill="#9D9C9F"/>
</svg>
