<svg width="56" height="56" viewBox="0 0 56 56" fill="none" xmlns="http://www.w3.org/2000/svg">
<rect width="56" height="56" rx="28" fill="#5CCE81"/>
<path d="M25.78 27.16L24.36 28.58C23.68 27.89 23.02 27 22.57 25.64L24.51 25.15C24.83 26.04 25.28 26.65 25.78 27.16ZM27 22L23 18L19 22H22.02C22.04 22.81 22.1 23.54 22.21 24.17L24.15 23.68C24.08 23.2 24.03 22.63 24.02 22H27ZM37 22L33 18L29 22H31.99C31.89 25.68 30.71 26.75 29.45 27.88C28.95 28.32 28.44 28.8 28 29.43C27.66 28.94 27.27 28.55 26.87 28.19L25.46 29.6C26.39 30.45 27 31.14 27 33V38H29V33C29 30.98 29.71 30.34 30.79 29.37C32.17 28.13 33.87 26.59 33.99 22H37Z" fill="#16642F"/>
</svg>
