<svg width="56" height="56" viewBox="0 0 56 56" fill="none" xmlns="http://www.w3.org/2000/svg">
<rect width="56" height="56" rx="28" fill="#5CCE81"/>
<path d="M28 18C22.48 18 18 22.48 18 28C18 33.52 22.48 38 28 38C33.52 38 38 33.52 38 28C38 22.48 33.52 18 28 18ZM28.88 33.76V35H27.13V33.71C26.39 33.53 24.74 32.94 24.11 30.75L25.76 30.08C25.82 30.3 26.34 32.17 28.16 32.17C29.09 32.17 30.14 31.69 30.14 30.56C30.14 29.6 29.44 29.1 27.86 28.53C26.76 28.14 24.51 27.5 24.51 25.22C24.51 25.12 24.52 22.82 27.13 22.26V21H28.88V22.24C30.72 22.56 31.39 24.03 31.54 24.47L29.96 25.14C29.85 24.79 29.37 23.8 28.06 23.8C27.36 23.8 26.25 24.17 26.25 25.19C26.25 26.14 27.11 26.5 28.89 27.09C31.29 27.92 31.9 29.14 31.9 30.54C31.9 33.17 29.4 33.67 28.88 33.76Z" fill="#16642F"/>
</svg>
