<svg width="56" height="56" viewBox="0 0 56 56" fill="none" xmlns="http://www.w3.org/2000/svg">
<rect width="56" height="56" rx="28" fill="#5CCE81"/>
<path d="M28 28.75C29.63 28.75 31.07 29.14 32.24 29.65C33.32 30.13 34 31.21 34 32.38V34H22V32.39C22 31.21 22.68 30.13 23.76 29.66C24.93 29.14 26.37 28.75 28 28.75ZM20 29C21.1 29 22 28.1 22 27C22 25.9 21.1 25 20 25C18.9 25 18 25.9 18 27C18 28.1 18.9 29 20 29ZM21.13 30.1C20.76 30.04 20.39 30 20 30C19.01 30 18.07 30.21 17.22 30.58C16.48 30.9 16 31.62 16 32.43V34H20.5V32.39C20.5 31.56 20.73 30.78 21.13 30.1ZM36 29C37.1 29 38 28.1 38 27C38 25.9 37.1 25 36 25C34.9 25 34 25.9 34 27C34 28.1 34.9 29 36 29ZM40 32.43C40 31.62 39.52 30.9 38.78 30.58C37.93 30.21 36.99 30 36 30C35.61 30 35.24 30.04 34.87 30.1C35.27 30.78 35.5 31.56 35.5 32.39V34H40V32.43ZM28 22C29.66 22 31 23.34 31 25C31 26.66 29.66 28 28 28C26.34 28 25 26.66 25 25C25 23.34 26.34 22 28 22Z" fill="#16642F"/>
</svg>
