<svg width="183" height="17" viewBox="0 0 183 17" fill="none" xmlns="http://www.w3.org/2000/svg">
<path fill-rule="evenodd" clip-rule="evenodd" d="M10.6246 9.08727V0.0623779H14.9222V16.7753H12.081L4.29752 7.5832V16.7753H0V0.0623779H3.05603L10.6246 9.08727Z" fill="#16642F"/>
<path fill-rule="evenodd" clip-rule="evenodd" d="M30.0879 16.7752H20.251V13.1938C23.53 13.1938 26.8088 13.1938 30.0879 13.1938V16.7752ZM20.251 9.80333V6.37539H28.9765H30.0879V9.80333H20.251ZM20.251 3.64338V0.0620117H30.0879V3.64338H20.251Z" fill="#16642F"/>
<path fill-rule="evenodd" clip-rule="evenodd" d="M84.6307 16.2739V16.7753H79.9989L76.0594 10.5676H75.1521V16.7753H70.8545V0.0623779H76.3458C78.3196 0.0623779 79.8715 0.500071 81.0017 1.3755C82.1317 2.25097 82.6969 3.54022 82.6969 5.24342C82.6969 6.24607 82.4939 7.12155 82.0879 7.86966C81.6821 8.61777 81.113 9.21463 80.3808 9.66032L84.6307 16.2739ZM75.1521 3.6437V6.98633H76.3936C76.9826 6.98633 77.4441 6.8351 77.7784 6.53267C78.1127 6.23024 78.2798 5.81642 78.2798 5.29112C78.2798 4.79774 78.1247 4.39981 77.8142 4.09738C77.5038 3.79495 77.0542 3.6437 76.4653 3.6437H75.1521Z" fill="#16642F"/>
<path fill-rule="evenodd" clip-rule="evenodd" d="M88.5742 0.0623779H92.8717V16.7753H88.5742V0.0623779Z" fill="#16642F"/>
<path fill-rule="evenodd" clip-rule="evenodd" d="M105.029 16.7753H100.731V3.6437H97.126V0.0623779H108.634V3.6437H105.029V16.7753Z" fill="#16642F"/>
<path fill-rule="evenodd" clip-rule="evenodd" d="M134.319 16.2739V16.7753H129.687L125.748 10.5676H124.84V16.7753H120.543V0.0623779H126.034C128.008 0.0623779 129.56 0.500071 130.69 1.3755C131.82 2.25097 132.385 3.54022 132.385 5.24342C132.385 6.24607 132.182 7.12155 131.776 7.86966C131.371 8.61777 130.802 9.21463 130.069 9.66032L134.319 16.2739ZM124.84 3.6437V6.98633H126.082C126.671 6.98633 127.133 6.8351 127.467 6.53267C127.801 6.23024 127.968 5.81642 127.968 5.29112C127.968 4.79774 127.813 4.39981 127.503 4.09738C127.192 3.79495 126.743 3.6437 126.154 3.6437H124.84Z" fill="#16642F"/>
<path fill-rule="evenodd" clip-rule="evenodd" d="M152.551 16.7129H148.038L146.964 13.7762H141.091L140.016 16.7129H135.838L142.308 0H145.961L152.551 16.7129ZM144.027 5.63472L142.284 10.4575H145.77L144.027 5.63472Z" fill="#16642F"/>
<path fill-rule="evenodd" clip-rule="evenodd" d="M170.437 8.26094C170.437 10.1392 170.032 11.7109 169.22 12.9763C168.408 14.2419 167.298 15.1809 165.889 15.7937C164.48 16.4066 162.893 16.7129 161.126 16.7129H155.276V0H161.603C163.466 0 165.061 0.34219 166.39 1.02657C167.72 1.71105 168.726 2.67399 169.411 3.91553C170.095 5.15717 170.437 6.60564 170.437 8.26094ZM160.72 13.1316C164.174 13.1316 165.901 11.5001 165.901 8.23707C165.901 6.64535 165.451 5.47155 164.552 4.71541C163.653 3.9593 162.423 3.58133 160.863 3.58133H159.574V13.1316H160.72Z" fill="#16642F"/>
<path fill-rule="evenodd" clip-rule="evenodd" d="M112.932 16.7752H108.634V12.4169V3.64338H112.888V0.0620117H116.537V3.64338H112.932V16.7752Z" fill="#16642F"/>
<path fill-rule="evenodd" clip-rule="evenodd" d="M112.439 5.43417V0.335083H116.737V5.43417H114.777H112.439Z" fill="#16642F"/>
<path fill-rule="evenodd" clip-rule="evenodd" d="M183 16.7752H173.163V13.1938C176.442 13.1938 179.721 13.1938 183 13.1938V16.7752ZM173.163 9.80333V6.37539H181.889H183V9.80333H173.163ZM173.163 3.64338V0.0620117H183V3.64338H173.163Z" fill="#16642F"/>
<path fill-rule="evenodd" clip-rule="evenodd" d="M40.5013 0.0623779C42.5387 0.0623779 44.1264 0.527876 45.2646 1.45909C46.4026 2.39026 46.9717 3.75504 46.9717 5.55369C46.9717 7.36823 46.3788 8.77699 45.1929 9.77978C44.0071 10.7824 42.3637 11.2839 40.2626 11.2839H39.403V16.7753H35.1055V0.0623779H40.5013ZM40.0955 7.70253C40.9708 7.70253 41.6076 7.51947 42.0055 7.15341C42.4035 6.78734 42.6024 6.28598 42.6024 5.6492C42.6024 4.31221 41.7428 3.6437 40.0238 3.6437H39.403V7.70253H40.0955Z" fill="#16642F"/>
<path fill-rule="evenodd" clip-rule="evenodd" d="M61.1324 6.27009V0.0623779H65.43V16.7753H61.1324V9.85142H55.2589V16.7753H50.9614V0.0623779H55.2589V6.27009H61.1324Z" fill="#16642F"/>
</svg>
