<svg width="183" height="17" viewBox="0 0 183 17" fill="none" xmlns="http://www.w3.org/2000/svg">
<path fill-rule="evenodd" clip-rule="evenodd" d="M10.6246 9.0874V0.0625H14.9222V16.7754H12.081L4.29752 7.58332V16.7754H0V0.0625H3.05603L10.6246 9.0874Z" fill="#16642F"/>
<path fill-rule="evenodd" clip-rule="evenodd" d="M30.0877 16.7752H20.2507V13.1938C23.5298 13.1938 26.8086 13.1938 30.0877 13.1938V16.7752ZM20.2507 9.80333V6.37539H28.9763H30.0877V9.80333H20.2507ZM20.2507 3.64338V0.0620117H30.0877V3.64338H20.2507Z" fill="#16642F"/>
<path fill-rule="evenodd" clip-rule="evenodd" d="M84.6307 16.274V16.7754H79.9989L76.0594 10.5677H75.1521V16.7754H70.8545V0.0625H76.3458C78.3196 0.0625 79.8715 0.500193 81.0017 1.37562C82.1317 2.2511 82.6969 3.54034 82.6969 5.24354C82.6969 6.24619 82.4939 7.12167 82.0879 7.86978C81.6821 8.61789 81.113 9.21476 80.3808 9.66044L84.6307 16.274ZM75.1521 3.64383V6.98645H76.3936C76.9826 6.98645 77.4441 6.83522 77.7784 6.53279C78.1127 6.23036 78.2798 5.81654 78.2798 5.29124C78.2798 4.79786 78.1247 4.39993 77.8142 4.0975C77.5038 3.79507 77.0542 3.64383 76.4653 3.64383H75.1521Z" fill="#16642F"/>
<path fill-rule="evenodd" clip-rule="evenodd" d="M88.5745 0.0625H92.872V16.7754H88.5745V0.0625Z" fill="#16642F"/>
<path fill-rule="evenodd" clip-rule="evenodd" d="M105.029 16.7754H100.731V3.64383H97.1262V0.0625H108.634V3.64383H105.029V16.7754Z" fill="#16642F"/>
<path fill-rule="evenodd" clip-rule="evenodd" d="M134.319 16.274V16.7754H129.687L125.748 10.5677H124.84V16.7754H120.543V0.0625H126.034C128.008 0.0625 129.56 0.500193 130.69 1.37562C131.82 2.2511 132.385 3.54034 132.385 5.24354C132.385 6.24619 132.182 7.12167 131.776 7.86978C131.37 8.61789 130.801 9.21476 130.069 9.66044L134.319 16.274ZM124.84 3.64383V6.98645H126.082C126.671 6.98645 127.132 6.83522 127.467 6.53279C127.801 6.23036 127.968 5.81654 127.968 5.29124C127.968 4.79786 127.813 4.39993 127.502 4.0975C127.192 3.79507 126.742 3.64383 126.154 3.64383H124.84Z" fill="#16642F"/>
<path fill-rule="evenodd" clip-rule="evenodd" d="M152.551 16.7129H148.039L146.964 13.7762H141.091L140.016 16.7129H135.838L142.309 0H145.961L152.551 16.7129ZM144.028 5.63472L142.285 10.4575H145.771L144.028 5.63472Z" fill="#16642F"/>
<path fill-rule="evenodd" clip-rule="evenodd" d="M170.437 8.26094C170.437 10.1392 170.032 11.7109 169.22 12.9763C168.408 14.2419 167.298 15.1809 165.889 15.7937C164.48 16.4066 162.893 16.7129 161.126 16.7129H155.276V0H161.603C163.466 0 165.061 0.34219 166.39 1.02657C167.72 1.71105 168.726 2.67399 169.411 3.91553C170.095 5.15717 170.437 6.60564 170.437 8.26094ZM160.72 13.1316C164.174 13.1316 165.901 11.5001 165.901 8.23707C165.901 6.64535 165.451 5.47155 164.552 4.71541C163.653 3.9593 162.423 3.58133 160.863 3.58133H159.574V13.1316H160.72Z" fill="#16642F"/>
<path fill-rule="evenodd" clip-rule="evenodd" d="M112.932 16.7752H108.634V12.4169V3.64338H112.888V0.0620117H116.537V3.64338H112.932V16.7752Z" fill="#16642F"/>
<path fill-rule="evenodd" clip-rule="evenodd" d="M112.439 5.43404V0.334961H116.737V5.43404H114.777H112.439Z" fill="#16642F"/>
<path fill-rule="evenodd" clip-rule="evenodd" d="M183 16.7752H173.163V13.1938C176.442 13.1938 179.721 13.1938 183 13.1938V16.7752ZM173.163 9.80333V6.37539H181.889H183V9.80333H173.163ZM173.163 3.64338V0.0620117H183V3.64338H173.163Z" fill="#16642F"/>
<path fill-rule="evenodd" clip-rule="evenodd" d="M40.5013 0.0625C42.5387 0.0625 44.1264 0.527998 45.2646 1.45921C46.4026 2.39038 46.9717 3.75516 46.9717 5.55382C46.9717 7.36835 46.3788 8.77711 45.1929 9.77991C44.0071 10.7826 42.3637 11.284 40.2626 11.284H39.403V16.7754H35.1055V0.0625H40.5013ZM40.0955 7.70266C40.9708 7.70266 41.6076 7.5196 42.0055 7.15353C42.4035 6.78747 42.6024 6.2861 42.6024 5.64932C42.6024 4.31233 41.7428 3.64383 40.0238 3.64383H39.403V7.70266H40.0955Z" fill="#16642F"/>
<path fill-rule="evenodd" clip-rule="evenodd" d="M61.1324 6.27021V0.0625H65.43V16.7754H61.1324V9.85154H55.2589V16.7754H50.9614V0.0625H55.2589V6.27021H61.1324Z" fill="#16642F"/>
</svg>
