<svg version="1.2" xmlns="http://www.w3.org/2000/svg" viewBox="0 0 60 20" width="60" height="20">
	<title>ovva-svg</title>
	<defs>
		<linearGradient id="g1" x2="1" gradientUnits="userSpaceOnUse" gradientTransform="matrix(3.523,4.941,-3.126,2.229,-26.608,10.004)">
			<stop offset="0" stop-color="#5245ae"/>
			<stop offset="1" stop-color="#a699ff"/>
		</linearGradient>
		<linearGradient id="g2" x2="1" gradientUnits="userSpaceOnUse" gradientTransform="matrix(8.968,.641,-0.401,5.612,-24.091,5.703)">
			<stop offset="0" stop-color="#493aad"/>
			<stop offset="1" stop-color="#0d0638"/>
		</linearGradient>
		<linearGradient id="g3" x2="1" gradientUnits="userSpaceOnUse" gradientTransform="matrix(-2.105,6.131,-2.745,-0.943,-15.902,8.54)">
			<stop offset="0" stop-color="#634feb"/>
			<stop offset="1" stop-color="#584da3"/>
		</linearGradient>
	</defs>
	<style>
		.s0 { fill: url(#g1) } 
		.s1 { fill: url(#g2) } 
		.s2 { fill: url(#g3) } 
		.s3 { fill: #a699ff } 
		.s4 { fill: #634feb } 
		.s5 { fill: #493aad } 
	</style>
	<path id="Layer" class="s0" d="m-27.4 6.4c-0.9 1.6-1.1 3.4-0.8 5.1 0.4 1.8 1.4 3.4 2.9 4.4 1.4 1.1 3.2 1.6 5 1.4 1.8-0.2 3.4-1 4.7-2.3l-2.1-2c-0.8 0.9-1.8 1.4-2.9 1.5-1.1 0.1-2.2-0.2-3-0.9-0.9-0.6-1.5-1.6-1.8-2.7-0.2-1 0-2.1 0.5-3.1z"/>
	<path id="Layer" class="s1" d="m-13.9 11.9c0.4-1.7 0.2-3.6-0.6-5.2-0.8-1.6-2.1-2.8-3.8-3.5-1.7-0.7-3.5-0.7-5.2-0.1-1.7 0.6-3.1 1.8-3.9 3.4l2.5 1.4q0.8-1.5 2.4-2.1c1-0.4 2.1-0.4 3.2 0 1 0.4 1.8 1.2 2.3 2.2 0.5 1 0.6 2.1 0.3 3.2z"/>
	<path id="Layer" class="s2" d="m-14.8 6.1c0.7 1.1 1.1 2.4 1.1 3.6 0.1 1.3-0.2 2.5-0.8 3.7-0.6 1.1-1.5 2.1-2.5 2.7q-1.7 1-3.6 1.2l-0.1-2.8c0.7-0.1 1.5-0.3 2.1-0.7 0.7-0.5 1.2-1 1.6-1.7 0.3-0.7 0.5-1.5 0.5-2.3 0-0.7-0.3-1.5-0.7-2.2z"/>
	<path id="Layer" class="s3" d="m-21 14.5h6c0.8 0 1.4 0.6 1.4 1.4 0 0.8-0.6 1.4-1.4 1.4h-6z"/>
	<path id="Layer" class="s4" d="m-17.1 7.8l-3-5.2c-0.4-0.6-0.1-1.5 0.6-1.9 0.6-0.4 1.5-0.1 1.9 0.5l2.9 5.1z"/>
	<path id="Layer" class="s5" d="m-24.9 7.8l-2.9 5.1c-0.4 0.6-1.3 0.9-2 0.5-0.6-0.4-0.9-1.3-0.5-1.9l3-5.2z"/>
	<path id="Layer" fill-rule="evenodd" class="s4" d="m-2.7 4.8c0 2.4-1.6 3.3-3 3.3-1.9 0-3.1-1.3-3.1-3.3 0-1.1 0.3-1.9 0.9-2.6 0.5-0.5 1.3-0.8 2.2-0.8 1.8 0 3 1.3 3 3.4zm-0.7 0c0-2-1.2-2.7-2.3-2.7-1.2 0-2.4 0.7-2.4 2.7 0 2 1.2 2.7 2.4 2.7 1.5 0 2.3-1 2.3-2.7z"/>
	<path id="Layer" class="s4" d="m2 1.5l-2 5.7-1.9-5.7h-0.8l2.3 6.5h0.9l2.2-6.5z"/>
	<path id="Layer" class="s4" d="m7.5 1.5l-1.9 5.7-2-5.7h-0.7l2.2 6.5h0.9l2.2-6.5z"/>
	<path id="Layer" fill-rule="evenodd" class="s4" d="m8.9 6.1l-0.6 1.9h-0.7l2.4-6.5h0.7l2.5 6.5h-0.7l-0.7-1.9zm0.2-0.6h2.4l-1.2-3.4z"/>
	<path id="Layer" fill-rule="evenodd" class="s4" d="m-6.2 17h-2.4v-6.5h2.4c1.7 0 3.1 1.5 3.1 3.3 0 1.8-1.4 3.2-3.1 3.2zm-1.7-0.6h1.6c1.2 0 2.4-1 2.5-2.4q0-0.1 0-0.2v-0.1c0-1.5-1.2-2.5-2.5-2.5h-1.6z"/>
	<path id="Layer" class="s4" d="m-1.9 17v-6.5h-0.6v6.5z"/>
	<path id="Layer" class="s4" d="m2 14.4h2c0 1.7-1.3 2.1-2.2 2.1-1.1 0-2.4-0.7-2.4-2.7 0-2 1.3-2.8 2.4-2.8 0.9 0 1.8 0.5 2.1 1.5h0.7c-0.4-1.5-1.5-2.1-2.8-2.1-0.8 0-1.6 0.3-2.1 0.8-0.6 0.6-0.9 1.5-0.9 2.6 0 2 1.2 3.3 3 3.3 0.9 0 1.7-0.3 2.2-0.8l0.1 0.7h0.5v-3.2h-2.6z"/>
	<path id="Layer" class="s4" d="m6 17v-6.5h-0.6v6.5z"/>
	<path id="Layer" class="s4" d="m12.7 11.2v-0.7h-6.1v0.7h2.7v5.8h0.7v-5.8z"/>
	<path id="Layer" fill-rule="evenodd" class="s4" d="m13.2 15.1l-0.6 1.9h-0.7l2.4-6.5h0.7l2.4 6.5h-0.7l-0.6-1.9zm0.2-0.6h2.4l-1.2-3.4z"/>
	<path id="Layer" class="s4" d="m18.5 10.5h-0.6v6.5h4.3v-0.6h-3.7z"/>
	<path id="Layer" class="s4" d="m25 13.8v-0.7h-3.1v0.7z"/>
	<path id="Layer" fill-rule="evenodd" class="s4" d="m26.5 15.1l-0.7 1.9h-0.7l2.5-6.5h0.7l2.4 6.5h-0.7l-0.7-1.9zm0.3-0.6h2.4l-1.2-3.4z"/>
	<path id="Layer" class="s4" d="m33.8 14.4h2c0 1.7-1.3 2.1-2.2 2.1-1 0-2.3-0.7-2.3-2.7 0-2 1.2-2.8 2.3-2.8 0.9 0 1.8 0.5 2.2 1.5h0.7c-0.5-1.5-1.5-2.1-2.9-2.1-0.8 0-1.6 0.3-2.1 0.8-0.6 0.6-0.9 1.5-0.9 2.6 0 2 1.2 3.3 3 3.3 0.9 0 1.7-0.3 2.2-0.8l0.1 0.7h0.6v-3.2h-2.7z"/>
	<path id="Layer" class="s4" d="m37.9 11.2h3.6v-0.7h-4.3v6.5h4.3v-0.6h-3.6v-2.6h3.1v-0.6h-3.1z"/>
	<path id="Layer" class="s4" d="m47 17h0.9v-6.5h-0.7v5.7l-3.9-5.7h-0.9v6.5h0.7v-5.7z"/>
	<path id="Layer" class="s4" d="m53.9 14.6c-0.3 1.2-1.1 1.9-2.3 1.9-1.2 0-2.4-0.7-2.4-2.7 0-2 1.2-2.8 2.4-2.8 0.9 0 1.9 0.5 2.2 1.7h0.7c-0.3-1.4-1.4-2.3-2.9-2.3-0.9 0-1.6 0.3-2.2 0.8-0.6 0.6-0.9 1.5-0.9 2.6 0 2 1.2 3.3 3.1 3.3 1.2 0 2.6-0.6 2.9-2.5z"/>
	<path id="Layer" class="s4" d="m58.5 10.5l-1.8 3.1-1.7-3.1h-0.8l2.2 3.9v2.6h0.7v-2.6l2.1-3.9z"/>
</svg>